<?xml version="1.0" encoding="utf-8"?>
<!-- Generator: Adobe Illustrator 15.1.0, SVG Export Plug-In . SVG Version: 6.00 Build 0)  -->
<!DOCTYPE svg PUBLIC "-//W3C//DTD SVG 1.1//EN" "http://www.w3.org/Graphics/SVG/1.1/DTD/svg11.dtd">
<svg version="1.1" xmlns="http://www.w3.org/2000/svg" xmlns:xlink="http://www.w3.org/1999/xlink" x="0px" y="0px" width="46px"
	 height="46px" viewBox="0 0 46 46" enable-background="new 0 0 46 46" xml:space="preserve">
<g id="grid00" display="none">
</g>
<g id="grid01" display="none">
	
		<line display="inline" fill="none" stroke="#000000" stroke-width="3" stroke-miterlimit="10" x1="0.079" y1="46.25" x2="46.079" y2="46.25"/>
</g>
<g id="grid02" display="none">
	<line display="inline" fill="none" stroke="#000000" stroke-width="3" stroke-miterlimit="10" x1="46" y1="46" x2="46" y2="0"/>
</g>
<g id="grid03" display="none">
	<line display="inline" fill="none" stroke="#000000" stroke-width="3" stroke-miterlimit="10" x1="46" y1="46" x2="46" y2="0"/>
	<line display="inline" fill="none" stroke="#000000" stroke-width="3" stroke-miterlimit="10" x1="0" y1="46" x2="46" y2="46"/>
</g>
<g id="grid04" display="none">
	<line display="inline" fill="none" stroke="#000000" stroke-width="3" stroke-miterlimit="10" x1="0" y1="0" x2="0" y2="46"/>
</g>
<g id="grid05" display="none">
	<line display="inline" fill="none" stroke="#000000" stroke-width="3" stroke-miterlimit="10" x1="0" y1="0" x2="0" y2="46"/>
	<line display="inline" fill="none" stroke="#000000" stroke-width="3" stroke-miterlimit="10" x1="46" y1="0" x2="46" y2="46"/>
</g>
<g id="grid06">
	<line fill="none" stroke="#000000" stroke-width="3" stroke-miterlimit="10" x1="0" y1="0" x2="0" y2="46"/>
	<line fill="none" stroke="#000000" stroke-width="3" stroke-miterlimit="10" x1="0" y1="46" x2="46" y2="46"/>
</g>
<g id="grid07" display="none">
	<line display="inline" fill="none" stroke="#000000" stroke-width="3" stroke-miterlimit="10" x1="0" y1="0" x2="0" y2="46"/>
	<line display="inline" fill="none" stroke="#000000" stroke-width="3" stroke-miterlimit="10" x1="0" y1="46" x2="46" y2="46"/>
	<line display="inline" fill="none" stroke="#000000" stroke-width="3" stroke-miterlimit="10" x1="46" y1="0" x2="46" y2="46"/>
</g>
<g id="grid08" display="none">
	<line display="inline" fill="none" stroke="#000000" stroke-width="3" stroke-miterlimit="10" x1="0" y1="0" x2="46" y2="0"/>
</g>
<g id="grid09" display="none">
	<line display="inline" fill="none" stroke="#000000" stroke-width="3" stroke-miterlimit="10" x1="0" y1="0" x2="46" y2="0"/>
	<line display="inline" fill="none" stroke="#000000" stroke-width="3" stroke-miterlimit="10" x1="46" y1="0" x2="46" y2="46"/>
</g>
<g id="grid10" display="none">
	<line display="inline" fill="none" stroke="#000000" stroke-width="3" stroke-miterlimit="10" x1="0" y1="0" x2="46" y2="0"/>
	<line display="inline" fill="none" stroke="#000000" stroke-width="3" stroke-miterlimit="10" x1="0" y1="46" x2="46" y2="46"/>
</g>
<g id="grid11" display="none">
	<line display="inline" fill="none" stroke="#000000" stroke-width="3" stroke-miterlimit="10" x1="0" y1="0" x2="46" y2="0"/>
	<line display="inline" fill="none" stroke="#000000" stroke-width="3" stroke-miterlimit="10" x1="0" y1="46" x2="46" y2="46"/>
	<line display="inline" fill="none" stroke="#000000" stroke-width="3" stroke-miterlimit="10" x1="46" y1="0" x2="46" y2="46"/>
</g>
<g id="grid12" display="none">
	<line display="inline" fill="none" stroke="#000000" stroke-width="3" stroke-miterlimit="10" x1="0" y1="0" x2="46" y2="0"/>
	<line display="inline" fill="none" stroke="#000000" stroke-width="3" stroke-miterlimit="10" x1="0" y1="0" x2="0" y2="46"/>
</g>
<g id="grid13" display="none">
	<line display="inline" fill="none" stroke="#000000" stroke-width="3" stroke-miterlimit="10" x1="0" y1="0" x2="46" y2="0"/>
	<line display="inline" fill="none" stroke="#000000" stroke-width="3" stroke-miterlimit="10" x1="0" y1="0" x2="0" y2="46"/>
	<line display="inline" fill="none" stroke="#000000" stroke-width="3" stroke-miterlimit="10" x1="46" y1="0" x2="46" y2="46"/>
</g>
<g id="grid14" display="none">
	<line display="inline" fill="none" stroke="#000000" stroke-width="3" stroke-miterlimit="10" x1="0" y1="0" x2="46" y2="0"/>
	<line display="inline" fill="none" stroke="#000000" stroke-width="3" stroke-miterlimit="10" x1="0" y1="0" x2="0" y2="46"/>
	<line display="inline" fill="none" stroke="#000000" stroke-width="3" stroke-miterlimit="10" x1="0" y1="46" x2="46" y2="46"/>
</g>
<g id="grid15" display="none">
	<line display="inline" fill="none" stroke="#000000" stroke-width="3" stroke-miterlimit="10" x1="0" y1="0" x2="46" y2="0"/>
	<line display="inline" fill="none" stroke="#000000" stroke-width="3" stroke-miterlimit="10" x1="0" y1="0" x2="0" y2="46"/>
	<line display="inline" fill="none" stroke="#000000" stroke-width="3" stroke-miterlimit="10" x1="0" y1="46" x2="46" y2="46"/>
	<line display="inline" fill="none" stroke="#000000" stroke-width="3" stroke-miterlimit="10" x1="46" y1="0" x2="46" y2="46"/>
</g>
</svg>
